<mxfile host="Electron" modified="2024-04-30T21:25:05.263Z" agent="Mozilla/5.0 (Windows NT 10.0; Win64; x64) AppleWebKit/537.36 (KHTML, like Gecko) draw.io/24.0.4 Chrome/120.0.6099.109 Electron/28.1.0 Safari/537.36" etag="UjayrkpXgUmMXpN1fjwi" version="24.0.4" type="device">
  <diagram name="PÃ¡gina-1" id="dXuvZrCzdVewI1BWlygH">
    <mxGraphModel dx="3763" dy="1472" grid="1" gridSize="10" guides="1" tooltips="1" connect="1" arrows="1" fold="1" page="1" pageScale="1" pageWidth="827" pageHeight="1169" math="0" shadow="0">
      <root>
        <mxCell id="0" />
        <mxCell id="1" parent="0" />
        <mxCell id="W6pYR9iXb_RBRObpkIhJ-198" value="" style="rounded=0;whiteSpace=wrap;html=1;" vertex="1" parent="1">
          <mxGeometry x="-2790" y="-840" width="920" height="610" as="geometry" />
        </mxCell>
        <mxCell id="zvLFGMxQSoV8-PF65h6c-11" value="" style="rounded=0;whiteSpace=wrap;html=1;" parent="1" vertex="1">
          <mxGeometry x="-1420" y="100" width="770" height="280" as="geometry" />
        </mxCell>
        <mxCell id="12L8eSCTPUgTgmOG4Fr1-43" value="" style="rounded=0;whiteSpace=wrap;html=1;" parent="1" vertex="1">
          <mxGeometry x="180" y="35" width="470" height="545" as="geometry" />
        </mxCell>
        <mxCell id="12L8eSCTPUgTgmOG4Fr1-37" value="" style="edgeStyle=orthogonalEdgeStyle;rounded=0;orthogonalLoop=1;jettySize=auto;html=1;endArrow=none;endFill=0;exitX=-0.007;exitY=0.753;exitDx=0;exitDy=0;exitPerimeter=0;" parent="1" source="12L8eSCTPUgTgmOG4Fr1-43" target="12L8eSCTPUgTgmOG4Fr1-36" edge="1">
          <mxGeometry relative="1" as="geometry">
            <mxPoint x="190" y="445" as="sourcePoint" />
          </mxGeometry>
        </mxCell>
        <mxCell id="12L8eSCTPUgTgmOG4Fr1-29" value="" style="shape=ext;margin=3;double=1;whiteSpace=wrap;html=1;align=center;" parent="1" vertex="1">
          <mxGeometry x="240" y="340" width="340" height="210" as="geometry" />
        </mxCell>
        <mxCell id="12L8eSCTPUgTgmOG4Fr1-3" value="" style="edgeStyle=orthogonalEdgeStyle;rounded=0;orthogonalLoop=1;jettySize=auto;html=1;endArrow=none;endFill=0;" parent="1" source="12L8eSCTPUgTgmOG4Fr1-1" target="12L8eSCTPUgTgmOG4Fr1-2" edge="1">
          <mxGeometry relative="1" as="geometry" />
        </mxCell>
        <mxCell id="12L8eSCTPUgTgmOG4Fr1-1" value="Equipo&amp;nbsp;" style="rounded=0;whiteSpace=wrap;html=1;strokeColor=default;" parent="1" vertex="1">
          <mxGeometry x="260" y="450" width="120" height="60" as="geometry" />
        </mxCell>
        <mxCell id="12L8eSCTPUgTgmOG4Fr1-5" value="" style="edgeStyle=orthogonalEdgeStyle;rounded=0;orthogonalLoop=1;jettySize=auto;html=1;entryX=0.5;entryY=0;entryDx=0;entryDy=0;endArrow=none;endFill=0;" parent="1" source="12L8eSCTPUgTgmOG4Fr1-2" target="12L8eSCTPUgTgmOG4Fr1-1" edge="1">
          <mxGeometry relative="1" as="geometry">
            <Array as="points">
              <mxPoint x="520" y="370" />
              <mxPoint x="320" y="370" />
            </Array>
          </mxGeometry>
        </mxCell>
        <mxCell id="12L8eSCTPUgTgmOG4Fr1-2" value="Juega" style="rhombus;whiteSpace=wrap;html=1;rounded=0;" parent="1" vertex="1">
          <mxGeometry x="480" y="440" width="80" height="80" as="geometry" />
        </mxCell>
        <mxCell id="12L8eSCTPUgTgmOG4Fr1-33" value="" style="edgeStyle=orthogonalEdgeStyle;rounded=0;orthogonalLoop=1;jettySize=auto;html=1;startArrow=block;startFill=1;endArrow=none;endFill=0;" parent="1" source="12L8eSCTPUgTgmOG4Fr1-7" target="12L8eSCTPUgTgmOG4Fr1-32" edge="1">
          <mxGeometry relative="1" as="geometry" />
        </mxCell>
        <mxCell id="12L8eSCTPUgTgmOG4Fr1-35" value="" style="edgeStyle=orthogonalEdgeStyle;rounded=0;orthogonalLoop=1;jettySize=auto;html=1;endArrow=none;endFill=0;" parent="1" source="12L8eSCTPUgTgmOG4Fr1-7" target="12L8eSCTPUgTgmOG4Fr1-34" edge="1">
          <mxGeometry relative="1" as="geometry" />
        </mxCell>
        <mxCell id="12L8eSCTPUgTgmOG4Fr1-7" value="Usuario" style="rounded=0;whiteSpace=wrap;html=1;" parent="1" vertex="1">
          <mxGeometry x="140" y="675" width="120" height="60" as="geometry" />
        </mxCell>
        <mxCell id="12L8eSCTPUgTgmOG4Fr1-10" value="" style="edgeStyle=orthogonalEdgeStyle;rounded=0;orthogonalLoop=1;jettySize=auto;html=1;endArrow=none;endFill=0;entryX=1;entryY=0.5;entryDx=0;entryDy=0;exitX=0.5;exitY=1;exitDx=0;exitDy=0;" parent="1" source="12L8eSCTPUgTgmOG4Fr1-8" target="12L8eSCTPUgTgmOG4Fr1-34" edge="1">
          <mxGeometry relative="1" as="geometry">
            <mxPoint x="420" y="730" as="targetPoint" />
            <Array as="points">
              <mxPoint x="410" y="850" />
            </Array>
          </mxGeometry>
        </mxCell>
        <mxCell id="12L8eSCTPUgTgmOG4Fr1-12" value="" style="edgeStyle=orthogonalEdgeStyle;rounded=0;orthogonalLoop=1;jettySize=auto;html=1;endArrow=oval;endFill=1;entryX=0;entryY=0.5;entryDx=0;entryDy=0;" parent="1" source="12L8eSCTPUgTgmOG4Fr1-8" target="12L8eSCTPUgTgmOG4Fr1-13" edge="1">
          <mxGeometry relative="1" as="geometry">
            <mxPoint x="530" y="660" as="targetPoint" />
          </mxGeometry>
        </mxCell>
        <mxCell id="12L8eSCTPUgTgmOG4Fr1-31" value="" style="edgeStyle=orthogonalEdgeStyle;rounded=0;orthogonalLoop=1;jettySize=auto;html=1;entryX=0.5;entryY=1;entryDx=0;entryDy=0;endArrow=none;endFill=0;" parent="1" source="12L8eSCTPUgTgmOG4Fr1-8" target="12L8eSCTPUgTgmOG4Fr1-29" edge="1">
          <mxGeometry relative="1" as="geometry" />
        </mxCell>
        <mxCell id="12L8eSCTPUgTgmOG4Fr1-8" value="PrediceP" style="rhombus;whiteSpace=wrap;html=1;rounded=0;" parent="1" vertex="1">
          <mxGeometry x="370" y="620" width="80" height="80" as="geometry" />
        </mxCell>
        <mxCell id="12L8eSCTPUgTgmOG4Fr1-15" value="" style="edgeStyle=orthogonalEdgeStyle;rounded=0;orthogonalLoop=1;jettySize=auto;html=1;endArrow=oval;endFill=1;" parent="1" source="12L8eSCTPUgTgmOG4Fr1-13" target="12L8eSCTPUgTgmOG4Fr1-14" edge="1">
          <mxGeometry relative="1" as="geometry" />
        </mxCell>
        <mxCell id="12L8eSCTPUgTgmOG4Fr1-17" value="" style="edgeStyle=orthogonalEdgeStyle;rounded=0;orthogonalLoop=1;jettySize=auto;html=1;endArrow=oval;endFill=1;" parent="1" source="12L8eSCTPUgTgmOG4Fr1-13" target="12L8eSCTPUgTgmOG4Fr1-16" edge="1">
          <mxGeometry relative="1" as="geometry" />
        </mxCell>
        <mxCell id="12L8eSCTPUgTgmOG4Fr1-13" value="Resultado" style="text;html=1;align=center;verticalAlign=middle;whiteSpace=wrap;rounded=0;" parent="1" vertex="1">
          <mxGeometry x="540" y="645" width="70" height="30" as="geometry" />
        </mxCell>
        <mxCell id="12L8eSCTPUgTgmOG4Fr1-14" value="ResultadoX" style="text;html=1;align=center;verticalAlign=middle;whiteSpace=wrap;rounded=0;" parent="1" vertex="1">
          <mxGeometry x="660" y="620" width="70" height="30" as="geometry" />
        </mxCell>
        <mxCell id="12L8eSCTPUgTgmOG4Fr1-16" value="ResultadoY" style="text;html=1;align=center;verticalAlign=middle;whiteSpace=wrap;rounded=0;" parent="1" vertex="1">
          <mxGeometry x="660" y="670" width="70" height="30" as="geometry" />
        </mxCell>
        <mxCell id="12L8eSCTPUgTgmOG4Fr1-19" value="Campeonato&amp;nbsp;" style="rounded=0;whiteSpace=wrap;html=1;" parent="1" vertex="1">
          <mxGeometry x="350" y="80" width="120" height="60" as="geometry" />
        </mxCell>
        <mxCell id="12L8eSCTPUgTgmOG4Fr1-24" value="" style="edgeStyle=orthogonalEdgeStyle;rounded=0;orthogonalLoop=1;jettySize=auto;html=1;endArrow=none;endFill=0;" parent="1" source="12L8eSCTPUgTgmOG4Fr1-22" target="12L8eSCTPUgTgmOG4Fr1-19" edge="1">
          <mxGeometry relative="1" as="geometry" />
        </mxCell>
        <mxCell id="12L8eSCTPUgTgmOG4Fr1-30" value="" style="edgeStyle=orthogonalEdgeStyle;rounded=0;orthogonalLoop=1;jettySize=auto;html=1;endArrow=none;endFill=0;" parent="1" source="12L8eSCTPUgTgmOG4Fr1-22" target="12L8eSCTPUgTgmOG4Fr1-29" edge="1">
          <mxGeometry relative="1" as="geometry" />
        </mxCell>
        <mxCell id="12L8eSCTPUgTgmOG4Fr1-22" value="Pertenece" style="rhombus;whiteSpace=wrap;html=1;rounded=0;" parent="1" vertex="1">
          <mxGeometry x="370" y="180" width="80" height="80" as="geometry" />
        </mxCell>
        <mxCell id="12L8eSCTPUgTgmOG4Fr1-32" value="Administrador" style="rounded=0;whiteSpace=wrap;html=1;" parent="1" vertex="1">
          <mxGeometry x="70" y="820" width="120" height="60" as="geometry" />
        </mxCell>
        <mxCell id="12L8eSCTPUgTgmOG4Fr1-47" value="" style="edgeStyle=orthogonalEdgeStyle;rounded=0;orthogonalLoop=1;jettySize=auto;html=1;entryX=0;entryY=0.5;entryDx=0;entryDy=0;" parent="1" source="12L8eSCTPUgTgmOG4Fr1-34" target="12L8eSCTPUgTgmOG4Fr1-45" edge="1">
          <mxGeometry relative="1" as="geometry">
            <mxPoint x="440" y="850" as="targetPoint" />
          </mxGeometry>
        </mxCell>
        <mxCell id="12L8eSCTPUgTgmOG4Fr1-34" value="Alumno" style="rounded=0;whiteSpace=wrap;html=1;" parent="1" vertex="1">
          <mxGeometry x="220" y="820" width="120" height="60" as="geometry" />
        </mxCell>
        <mxCell id="12L8eSCTPUgTgmOG4Fr1-36" value="Registra" style="rhombus;whiteSpace=wrap;html=1;" parent="1" vertex="1">
          <mxGeometry x="50" y="405" width="80" height="80" as="geometry" />
        </mxCell>
        <mxCell id="12L8eSCTPUgTgmOG4Fr1-38" value="" style="endArrow=none;html=1;rounded=0;entryX=0.5;entryY=1;entryDx=0;entryDy=0;exitX=0.154;exitY=0.045;exitDx=0;exitDy=0;exitPerimeter=0;" parent="1" source="12L8eSCTPUgTgmOG4Fr1-32" target="12L8eSCTPUgTgmOG4Fr1-36" edge="1">
          <mxGeometry width="50" height="50" relative="1" as="geometry">
            <mxPoint x="420" y="690" as="sourcePoint" />
            <mxPoint x="470" y="640" as="targetPoint" />
          </mxGeometry>
        </mxCell>
        <mxCell id="12L8eSCTPUgTgmOG4Fr1-41" value="Crea" style="rhombus;whiteSpace=wrap;html=1;" parent="1" vertex="1">
          <mxGeometry x="50" y="190" width="80" height="80" as="geometry" />
        </mxCell>
        <mxCell id="12L8eSCTPUgTgmOG4Fr1-49" value="" style="edgeStyle=orthogonalEdgeStyle;rounded=0;orthogonalLoop=1;jettySize=auto;html=1;entryX=0.992;entryY=0.617;entryDx=0;entryDy=0;entryPerimeter=0;endArrow=none;endFill=0;" parent="1" source="12L8eSCTPUgTgmOG4Fr1-45" target="12L8eSCTPUgTgmOG4Fr1-19" edge="1">
          <mxGeometry relative="1" as="geometry">
            <mxPoint x="770" y="690" as="targetPoint" />
            <Array as="points">
              <mxPoint x="770" y="117" />
            </Array>
          </mxGeometry>
        </mxCell>
        <mxCell id="12L8eSCTPUgTgmOG4Fr1-45" value="PrediceC" style="rhombus;whiteSpace=wrap;html=1;rounded=0;" parent="1" vertex="1">
          <mxGeometry x="730" y="810" width="80" height="80" as="geometry" />
        </mxCell>
        <mxCell id="12L8eSCTPUgTgmOG4Fr1-52" value="" style="edgeStyle=orthogonalEdgeStyle;rounded=0;orthogonalLoop=1;jettySize=auto;html=1;entryX=0;entryY=0.5;entryDx=0;entryDy=0;endArrow=none;endFill=0;" parent="1" source="12L8eSCTPUgTgmOG4Fr1-50" target="12L8eSCTPUgTgmOG4Fr1-19" edge="1">
          <mxGeometry relative="1" as="geometry">
            <mxPoint x="280" y="60" as="targetPoint" />
            <Array as="points">
              <mxPoint x="330" y="220" />
              <mxPoint x="330" y="110" />
            </Array>
          </mxGeometry>
        </mxCell>
        <mxCell id="12L8eSCTPUgTgmOG4Fr1-53" value="" style="edgeStyle=orthogonalEdgeStyle;rounded=0;orthogonalLoop=1;jettySize=auto;html=1;endArrow=none;endFill=0;" parent="1" source="12L8eSCTPUgTgmOG4Fr1-50" edge="1">
          <mxGeometry relative="1" as="geometry">
            <mxPoint x="280" y="450" as="targetPoint" />
            <Array as="points">
              <mxPoint x="280" y="450" />
            </Array>
          </mxGeometry>
        </mxCell>
        <mxCell id="12L8eSCTPUgTgmOG4Fr1-50" value="Pertenece" style="rhombus;whiteSpace=wrap;html=1;" parent="1" vertex="1">
          <mxGeometry x="240" y="180" width="80" height="80" as="geometry" />
        </mxCell>
        <mxCell id="zvLFGMxQSoV8-PF65h6c-19" value="" style="edgeStyle=orthogonalEdgeStyle;rounded=0;orthogonalLoop=1;jettySize=auto;html=1;endArrow=none;endFill=0;" parent="1" source="zvLFGMxQSoV8-PF65h6c-2" target="zvLFGMxQSoV8-PF65h6c-18" edge="1">
          <mxGeometry relative="1" as="geometry" />
        </mxCell>
        <mxCell id="zvLFGMxQSoV8-PF65h6c-2" value="Equipo&amp;nbsp;" style="rounded=0;whiteSpace=wrap;html=1;strokeColor=default;" parent="1" vertex="1">
          <mxGeometry x="-1300" y="220" width="120" height="60" as="geometry" />
        </mxCell>
        <mxCell id="zvLFGMxQSoV8-PF65h6c-69" value="" style="edgeStyle=orthogonalEdgeStyle;rounded=0;orthogonalLoop=1;jettySize=auto;html=1;endArrow=none;endFill=0;" parent="1" source="zvLFGMxQSoV8-PF65h6c-3" target="zvLFGMxQSoV8-PF65h6c-70" edge="1">
          <mxGeometry relative="1" as="geometry">
            <mxPoint x="-830" y="149.99999999999955" as="targetPoint" />
          </mxGeometry>
        </mxCell>
        <mxCell id="M3zGyAa31avvOrwBrVhZ-25" value="" style="edgeStyle=orthogonalEdgeStyle;rounded=0;orthogonalLoop=1;jettySize=auto;html=1;entryX=0.017;entryY=0.569;entryDx=0;entryDy=0;entryPerimeter=0;exitX=0.108;exitY=1.002;exitDx=0;exitDy=0;exitPerimeter=0;endArrow=oval;endFill=1;" parent="1" source="zvLFGMxQSoV8-PF65h6c-3" target="M3zGyAa31avvOrwBrVhZ-22" edge="1">
          <mxGeometry relative="1" as="geometry" />
        </mxCell>
        <mxCell id="zvLFGMxQSoV8-PF65h6c-3" value="Campeonato&amp;nbsp;" style="rounded=0;whiteSpace=wrap;html=1;" parent="1" vertex="1">
          <mxGeometry x="-890" y="220" width="120" height="60" as="geometry" />
        </mxCell>
        <mxCell id="zvLFGMxQSoV8-PF65h6c-6" value="" style="edgeStyle=orthogonalEdgeStyle;rounded=0;orthogonalLoop=1;jettySize=auto;html=1;startArrow=block;startFill=1;endArrow=none;endFill=0;" parent="1" source="zvLFGMxQSoV8-PF65h6c-8" target="zvLFGMxQSoV8-PF65h6c-9" edge="1">
          <mxGeometry relative="1" as="geometry" />
        </mxCell>
        <mxCell id="zvLFGMxQSoV8-PF65h6c-7" value="" style="edgeStyle=orthogonalEdgeStyle;rounded=0;orthogonalLoop=1;jettySize=auto;html=1;endArrow=none;endFill=0;" parent="1" source="zvLFGMxQSoV8-PF65h6c-8" target="zvLFGMxQSoV8-PF65h6c-10" edge="1">
          <mxGeometry relative="1" as="geometry" />
        </mxCell>
        <mxCell id="zvLFGMxQSoV8-PF65h6c-22" value="" style="edgeStyle=orthogonalEdgeStyle;rounded=0;orthogonalLoop=1;jettySize=auto;html=1;endArrow=none;endFill=0;exitX=0.5;exitY=1;exitDx=0;exitDy=0;" parent="1" source="zvLFGMxQSoV8-PF65h6c-10" target="zvLFGMxQSoV8-PF65h6c-21" edge="1">
          <mxGeometry relative="1" as="geometry">
            <Array as="points">
              <mxPoint x="-810" y="1070" />
              <mxPoint x="-1100" y="1070" />
            </Array>
          </mxGeometry>
        </mxCell>
        <mxCell id="M3zGyAa31avvOrwBrVhZ-9" value="" style="edgeStyle=orthogonalEdgeStyle;rounded=0;orthogonalLoop=1;jettySize=auto;html=1;endArrow=oval;endFill=1;entryX=0;entryY=0.5;entryDx=0;entryDy=0;" parent="1" source="zvLFGMxQSoV8-PF65h6c-8" target="M3zGyAa31avvOrwBrVhZ-10" edge="1">
          <mxGeometry relative="1" as="geometry">
            <mxPoint x="-890" y="627.5" as="targetPoint" />
            <Array as="points">
              <mxPoint x="-930" y="615" />
            </Array>
          </mxGeometry>
        </mxCell>
        <mxCell id="zvLFGMxQSoV8-PF65h6c-8" value="Usuario" style="rounded=0;whiteSpace=wrap;html=1;" parent="1" vertex="1">
          <mxGeometry x="-950" y="737.5" width="120" height="60" as="geometry" />
        </mxCell>
        <mxCell id="zvLFGMxQSoV8-PF65h6c-9" value="Administrador" style="rounded=0;whiteSpace=wrap;html=1;" parent="1" vertex="1">
          <mxGeometry x="-1020" y="882.5" width="120" height="60" as="geometry" />
        </mxCell>
        <mxCell id="zvLFGMxQSoV8-PF65h6c-10" value="Alumno" style="rounded=0;whiteSpace=wrap;html=1;" parent="1" vertex="1">
          <mxGeometry x="-870" y="882.5" width="120" height="60" as="geometry" />
        </mxCell>
        <mxCell id="zvLFGMxQSoV8-PF65h6c-15" value="" style="edgeStyle=orthogonalEdgeStyle;rounded=0;orthogonalLoop=1;jettySize=auto;html=1;entryX=0;entryY=0.5;entryDx=0;entryDy=0;endArrow=none;endFill=0;" parent="1" source="zvLFGMxQSoV8-PF65h6c-13" target="zvLFGMxQSoV8-PF65h6c-2" edge="1">
          <mxGeometry relative="1" as="geometry">
            <mxPoint x="-1350.0000000000005" y="330" as="targetPoint" />
            <Array as="points">
              <mxPoint x="-1350" y="250" />
            </Array>
          </mxGeometry>
        </mxCell>
        <mxCell id="zvLFGMxQSoV8-PF65h6c-17" value="" style="edgeStyle=orthogonalEdgeStyle;rounded=0;orthogonalLoop=1;jettySize=auto;html=1;endArrow=none;endFill=0;" parent="1" source="zvLFGMxQSoV8-PF65h6c-13" target="zvLFGMxQSoV8-PF65h6c-2" edge="1">
          <mxGeometry relative="1" as="geometry">
            <mxPoint x="-1190.0000000000005" y="170" as="targetPoint" />
          </mxGeometry>
        </mxCell>
        <mxCell id="zvLFGMxQSoV8-PF65h6c-13" value="Juega" style="rhombus;whiteSpace=wrap;html=1;rounded=0;" parent="1" vertex="1">
          <mxGeometry x="-1390" y="130" width="80" height="80" as="geometry" />
        </mxCell>
        <mxCell id="zvLFGMxQSoV8-PF65h6c-20" value="" style="edgeStyle=orthogonalEdgeStyle;rounded=0;orthogonalLoop=1;jettySize=auto;html=1;endArrow=none;endFill=0;" parent="1" source="zvLFGMxQSoV8-PF65h6c-18" target="zvLFGMxQSoV8-PF65h6c-3" edge="1">
          <mxGeometry relative="1" as="geometry" />
        </mxCell>
        <mxCell id="zvLFGMxQSoV8-PF65h6c-18" value="Tiene" style="rhombus;whiteSpace=wrap;html=1;rounded=0;" parent="1" vertex="1">
          <mxGeometry x="-1075" y="210" width="80" height="80" as="geometry" />
        </mxCell>
        <mxCell id="zvLFGMxQSoV8-PF65h6c-24" value="" style="edgeStyle=orthogonalEdgeStyle;rounded=0;orthogonalLoop=1;jettySize=auto;html=1;endArrow=none;endFill=0;" parent="1" source="zvLFGMxQSoV8-PF65h6c-21" target="zvLFGMxQSoV8-PF65h6c-11" edge="1">
          <mxGeometry relative="1" as="geometry">
            <mxPoint x="-1280" y="430" as="targetPoint" />
            <Array as="points" />
          </mxGeometry>
        </mxCell>
        <mxCell id="zvLFGMxQSoV8-PF65h6c-30" value="" style="edgeStyle=orthogonalEdgeStyle;rounded=0;orthogonalLoop=1;jettySize=auto;html=1;endArrow=oval;endFill=1;" parent="1" source="zvLFGMxQSoV8-PF65h6c-21" target="zvLFGMxQSoV8-PF65h6c-27" edge="1">
          <mxGeometry relative="1" as="geometry" />
        </mxCell>
        <mxCell id="zvLFGMxQSoV8-PF65h6c-21" value="Adivina" style="rhombus;whiteSpace=wrap;html=1;rounded=0;" parent="1" vertex="1">
          <mxGeometry x="-1140" y="647.5" width="80" height="80" as="geometry" />
        </mxCell>
        <mxCell id="zvLFGMxQSoV8-PF65h6c-25" value="" style="edgeStyle=orthogonalEdgeStyle;rounded=0;orthogonalLoop=1;jettySize=auto;html=1;endArrow=oval;endFill=1;" parent="1" source="zvLFGMxQSoV8-PF65h6c-27" target="zvLFGMxQSoV8-PF65h6c-28" edge="1">
          <mxGeometry relative="1" as="geometry" />
        </mxCell>
        <mxCell id="zvLFGMxQSoV8-PF65h6c-26" value="" style="edgeStyle=orthogonalEdgeStyle;rounded=0;orthogonalLoop=1;jettySize=auto;html=1;endArrow=oval;endFill=1;" parent="1" source="zvLFGMxQSoV8-PF65h6c-27" target="zvLFGMxQSoV8-PF65h6c-29" edge="1">
          <mxGeometry relative="1" as="geometry" />
        </mxCell>
        <mxCell id="zvLFGMxQSoV8-PF65h6c-27" value="Resultado" style="text;html=1;align=center;verticalAlign=middle;whiteSpace=wrap;rounded=0;" parent="1" vertex="1">
          <mxGeometry x="-1050" y="510" width="70" height="30" as="geometry" />
        </mxCell>
        <mxCell id="zvLFGMxQSoV8-PF65h6c-28" value="ResultadoX" style="text;html=1;align=center;verticalAlign=middle;whiteSpace=wrap;rounded=0;" parent="1" vertex="1">
          <mxGeometry x="-940" y="485" width="70" height="30" as="geometry" />
        </mxCell>
        <mxCell id="zvLFGMxQSoV8-PF65h6c-29" value="ResultadoY" style="text;html=1;align=center;verticalAlign=middle;whiteSpace=wrap;rounded=0;" parent="1" vertex="1">
          <mxGeometry x="-940" y="535" width="70" height="30" as="geometry" />
        </mxCell>
        <mxCell id="zvLFGMxQSoV8-PF65h6c-35" value="" style="edgeStyle=orthogonalEdgeStyle;rounded=0;orthogonalLoop=1;jettySize=auto;html=1;endArrow=none;endFill=0;" parent="1" source="zvLFGMxQSoV8-PF65h6c-31" target="zvLFGMxQSoV8-PF65h6c-34" edge="1">
          <mxGeometry relative="1" as="geometry" />
        </mxCell>
        <mxCell id="zvLFGMxQSoV8-PF65h6c-31" value="Tabla_Equipos" style="rounded=0;whiteSpace=wrap;html=1;strokeColor=default;" parent="1" vertex="1">
          <mxGeometry x="-420" y="737.5" width="120" height="60" as="geometry" />
        </mxCell>
        <mxCell id="zvLFGMxQSoV8-PF65h6c-37" value="" style="edgeStyle=orthogonalEdgeStyle;rounded=0;orthogonalLoop=1;jettySize=auto;html=1;exitX=0.5;exitY=0;exitDx=0;exitDy=0;entryX=1;entryY=0.437;entryDx=0;entryDy=0;entryPerimeter=0;endArrow=none;endFill=0;" parent="1" source="zvLFGMxQSoV8-PF65h6c-34" target="zvLFGMxQSoV8-PF65h6c-11" edge="1">
          <mxGeometry relative="1" as="geometry">
            <mxPoint x="34.99666666666707" y="439.9966666666666" as="sourcePoint" />
            <mxPoint x="-600.0033333333333" y="239.93" as="targetPoint" />
          </mxGeometry>
        </mxCell>
        <mxCell id="zvLFGMxQSoV8-PF65h6c-34" value="Contempla" style="rhombus;whiteSpace=wrap;html=1;rounded=0;" parent="1" vertex="1">
          <mxGeometry x="-400" y="540" width="80" height="80" as="geometry" />
        </mxCell>
        <mxCell id="zvLFGMxQSoV8-PF65h6c-40" value="" style="edgeStyle=orthogonalEdgeStyle;rounded=0;orthogonalLoop=1;jettySize=auto;html=1;entryX=1;entryY=0.5;entryDx=0;entryDy=0;endArrow=none;endFill=0;" parent="1" source="zvLFGMxQSoV8-PF65h6c-38" target="zvLFGMxQSoV8-PF65h6c-10" edge="1">
          <mxGeometry relative="1" as="geometry">
            <mxPoint x="-790" y="767.5" as="targetPoint" />
          </mxGeometry>
        </mxCell>
        <mxCell id="zvLFGMxQSoV8-PF65h6c-42" value="" style="edgeStyle=orthogonalEdgeStyle;rounded=0;orthogonalLoop=1;jettySize=auto;html=1;entryX=0;entryY=0.5;entryDx=0;entryDy=0;endArrow=none;endFill=0;" parent="1" source="zvLFGMxQSoV8-PF65h6c-38" target="zvLFGMxQSoV8-PF65h6c-31" edge="1">
          <mxGeometry relative="1" as="geometry">
            <mxPoint x="-470" y="767.5" as="targetPoint" />
          </mxGeometry>
        </mxCell>
        <mxCell id="zvLFGMxQSoV8-PF65h6c-46" value="" style="edgeStyle=orthogonalEdgeStyle;rounded=0;orthogonalLoop=1;jettySize=auto;html=1;endArrow=oval;endFill=1;" parent="1" source="zvLFGMxQSoV8-PF65h6c-38" target="zvLFGMxQSoV8-PF65h6c-47" edge="1">
          <mxGeometry relative="1" as="geometry">
            <mxPoint x="-630" y="927.5" as="targetPoint" />
          </mxGeometry>
        </mxCell>
        <mxCell id="zvLFGMxQSoV8-PF65h6c-51" value="" style="edgeStyle=orthogonalEdgeStyle;rounded=0;orthogonalLoop=1;jettySize=auto;html=1;entryX=0.394;entryY=0.089;entryDx=0;entryDy=0;entryPerimeter=0;endArrow=oval;endFill=1;" parent="1" source="zvLFGMxQSoV8-PF65h6c-38" target="zvLFGMxQSoV8-PF65h6c-48" edge="1">
          <mxGeometry relative="1" as="geometry">
            <mxPoint x="-560" y="870" as="targetPoint" />
            <Array as="points">
              <mxPoint x="-630" y="900" />
              <mxPoint x="-546" y="900" />
              <mxPoint x="-546" y="913" />
            </Array>
          </mxGeometry>
        </mxCell>
        <mxCell id="zvLFGMxQSoV8-PF65h6c-38" value="Predice" style="rhombus;whiteSpace=wrap;html=1;rounded=0;" parent="1" vertex="1">
          <mxGeometry x="-670" y="727.5" width="80" height="80" as="geometry" />
        </mxCell>
        <mxCell id="zvLFGMxQSoV8-PF65h6c-47" value="CampeÃ³n&amp;nbsp;" style="text;html=1;align=center;verticalAlign=middle;whiteSpace=wrap;rounded=0;" parent="1" vertex="1">
          <mxGeometry x="-660" y="940" width="60" height="30" as="geometry" />
        </mxCell>
        <mxCell id="zvLFGMxQSoV8-PF65h6c-48" value="SubcampeÃ³n&amp;nbsp;" style="text;html=1;align=center;verticalAlign=middle;whiteSpace=wrap;rounded=0;" parent="1" vertex="1">
          <mxGeometry x="-570" y="940" width="60" height="30" as="geometry" />
        </mxCell>
        <mxCell id="zvLFGMxQSoV8-PF65h6c-55" value="" style="edgeStyle=orthogonalEdgeStyle;rounded=0;orthogonalLoop=1;jettySize=auto;html=1;endArrow=none;endFill=0;" parent="1" source="zvLFGMxQSoV8-PF65h6c-52" target="zvLFGMxQSoV8-PF65h6c-2" edge="1">
          <mxGeometry relative="1" as="geometry" />
        </mxCell>
        <mxCell id="zvLFGMxQSoV8-PF65h6c-52" value="CampeÃ³n" style="rounded=0;whiteSpace=wrap;html=1;strokeColor=default;" parent="1" vertex="1">
          <mxGeometry x="-1400" y="415" width="120" height="60" as="geometry" />
        </mxCell>
        <mxCell id="zvLFGMxQSoV8-PF65h6c-56" value="" style="edgeStyle=orthogonalEdgeStyle;rounded=0;orthogonalLoop=1;jettySize=auto;html=1;entryX=0.5;entryY=1;entryDx=0;entryDy=0;endArrow=none;endFill=0;" parent="1" source="zvLFGMxQSoV8-PF65h6c-53" target="zvLFGMxQSoV8-PF65h6c-2" edge="1">
          <mxGeometry relative="1" as="geometry" />
        </mxCell>
        <mxCell id="zvLFGMxQSoV8-PF65h6c-53" value="SubampeÃ³n" style="rounded=0;whiteSpace=wrap;html=1;strokeColor=default;" parent="1" vertex="1">
          <mxGeometry x="-1180" y="415" width="120" height="60" as="geometry" />
        </mxCell>
        <mxCell id="zvLFGMxQSoV8-PF65h6c-60" value="" style="edgeStyle=orthogonalEdgeStyle;rounded=0;orthogonalLoop=1;jettySize=auto;html=1;endArrow=none;endFill=0;" parent="1" source="zvLFGMxQSoV8-PF65h6c-58" target="zvLFGMxQSoV8-PF65h6c-52" edge="1">
          <mxGeometry relative="1" as="geometry">
            <mxPoint x="-1390" y="590" as="targetPoint" />
          </mxGeometry>
        </mxCell>
        <mxCell id="zvLFGMxQSoV8-PF65h6c-62" value="" style="edgeStyle=orthogonalEdgeStyle;rounded=0;orthogonalLoop=1;jettySize=auto;html=1;entryX=0.5;entryY=1;entryDx=0;entryDy=0;endArrow=none;endFill=0;" parent="1" source="zvLFGMxQSoV8-PF65h6c-58" target="zvLFGMxQSoV8-PF65h6c-53" edge="1">
          <mxGeometry relative="1" as="geometry">
            <mxPoint x="-1070" y="590" as="targetPoint" />
          </mxGeometry>
        </mxCell>
        <mxCell id="zvLFGMxQSoV8-PF65h6c-64" value="" style="edgeStyle=orthogonalEdgeStyle;rounded=0;orthogonalLoop=1;jettySize=auto;html=1;entryX=0.5;entryY=1;entryDx=0;entryDy=0;endArrow=none;endFill=0;" parent="1" source="zvLFGMxQSoV8-PF65h6c-58" target="zvLFGMxQSoV8-PF65h6c-10" edge="1">
          <mxGeometry relative="1" as="geometry">
            <mxPoint x="-1230" y="750" as="targetPoint" />
            <Array as="points">
              <mxPoint x="-1230" y="1070" />
              <mxPoint x="-810" y="1070" />
            </Array>
          </mxGeometry>
        </mxCell>
        <mxCell id="zvLFGMxQSoV8-PF65h6c-58" value="Predice" style="rhombus;whiteSpace=wrap;html=1;rounded=0;" parent="1" vertex="1">
          <mxGeometry x="-1270" y="550" width="80" height="80" as="geometry" />
        </mxCell>
        <mxCell id="zvLFGMxQSoV8-PF65h6c-65" value="Predice_CampeÃ³n&lt;span style=&quot;color: rgba(0, 0, 0, 0); font-family: monospace; font-size: 0px; text-align: start; text-wrap: nowrap;&quot;&gt;%3CmxGraphModel%3E%3Croot%3E%3CmxCell%20id%3D%220%22%2F%3E%3CmxCell%20id%3D%221%22%20parent%3D%220%22%2F%3E%3CmxCell%20id%3D%222%22%20value%3D%22Predice%22%20style%3D%22rhombus%3BwhiteSpace%3Dwrap%3Bhtml%3D1%3Brounded%3D0%3B%22%20vertex%3D%221%22%20parent%3D%221%22%3E%3CmxGeometry%20x%3D%22-1270%22%20y%3D%22550%22%20width%3D%2280%22%20height%3D%2280%22%20as%3D%22geometry%22%2F%3E%3C%2FmxCell%3E%3C%2Froot%3E%3C%2FmxGraphModel%3E&lt;/span&gt;" style="rhombus;whiteSpace=wrap;html=1;rounded=0;" parent="1" vertex="1">
          <mxGeometry x="-1450" y="1050" width="200" height="80" as="geometry" />
        </mxCell>
        <mxCell id="zvLFGMxQSoV8-PF65h6c-66" value="Predice_SubcampeÃ³n&lt;span style=&quot;color: rgba(0, 0, 0, 0); font-family: monospace; font-size: 0px; text-align: start; text-wrap: nowrap;&quot;&gt;%3CmxGraphModel%3E%3Croot%3E%3CmxCell%20id%3D%220%22%2F%3E%3CmxCell%20id%3D%221%22%20parent%3D%220%22%2F%3E%3CmxCell%20id%3D%222%22%20value%3D%22Predice%22%20style%3D%22rhombus%3BwhiteSpace%3Dwrap%3Bhtml%3D1%3Brounded%3D0%3B%22%20vertex%3D%221%22%20parent%3D%221%22%3E%3CmxGeometry%20x%3D%22-1270%22%20y%3D%22550%22%20width%3D%2280%22%20height%3D%2280%22%20as%3D%22geometry%22%2F%3E%3C%2FmxCell%3E%3C%2Froot%3E%3C%2FmxGraphModel%3E&lt;/span&gt;" style="rhombus;whiteSpace=wrap;html=1;rounded=0;" parent="1" vertex="1">
          <mxGeometry x="-1630" y="990" width="200" height="80" as="geometry" />
        </mxCell>
        <mxCell id="zvLFGMxQSoV8-PF65h6c-73" value="" style="edgeStyle=orthogonalEdgeStyle;rounded=0;orthogonalLoop=1;jettySize=auto;html=1;endArrow=none;endFill=0;" parent="1" source="zvLFGMxQSoV8-PF65h6c-67" target="zvLFGMxQSoV8-PF65h6c-72" edge="1">
          <mxGeometry relative="1" as="geometry" />
        </mxCell>
        <mxCell id="M3zGyAa31avvOrwBrVhZ-30" value="" style="edgeStyle=orthogonalEdgeStyle;rounded=0;orthogonalLoop=1;jettySize=auto;html=1;endArrow=oval;endFill=1;entryX=0;entryY=0.5;entryDx=0;entryDy=0;" parent="1" source="zvLFGMxQSoV8-PF65h6c-67" target="M3zGyAa31avvOrwBrVhZ-27" edge="1">
          <mxGeometry relative="1" as="geometry">
            <mxPoint x="-767" y="-180" as="targetPoint" />
          </mxGeometry>
        </mxCell>
        <mxCell id="zvLFGMxQSoV8-PF65h6c-67" value="Etapas&amp;nbsp;" style="rounded=0;whiteSpace=wrap;html=1;" parent="1" vertex="1">
          <mxGeometry x="-827" y="-70" width="120" height="60" as="geometry" />
        </mxCell>
        <mxCell id="zvLFGMxQSoV8-PF65h6c-71" value="" style="edgeStyle=orthogonalEdgeStyle;rounded=0;orthogonalLoop=1;jettySize=auto;html=1;endArrow=none;endFill=0;" parent="1" source="zvLFGMxQSoV8-PF65h6c-70" target="zvLFGMxQSoV8-PF65h6c-67" edge="1">
          <mxGeometry relative="1" as="geometry" />
        </mxCell>
        <mxCell id="zvLFGMxQSoV8-PF65h6c-70" value="Tiene" style="rhombus;whiteSpace=wrap;html=1;rounded=0;" parent="1" vertex="1">
          <mxGeometry x="-807" y="90" width="80" height="80" as="geometry" />
        </mxCell>
        <mxCell id="zvLFGMxQSoV8-PF65h6c-74" value="" style="edgeStyle=orthogonalEdgeStyle;rounded=0;orthogonalLoop=1;jettySize=auto;html=1;endArrow=none;endFill=0;" parent="1" source="zvLFGMxQSoV8-PF65h6c-72" target="zvLFGMxQSoV8-PF65h6c-11" edge="1">
          <mxGeometry relative="1" as="geometry" />
        </mxCell>
        <mxCell id="zvLFGMxQSoV8-PF65h6c-72" value="Tiene" style="rhombus;whiteSpace=wrap;html=1;rounded=0;" parent="1" vertex="1">
          <mxGeometry x="-1007" y="-80" width="80" height="80" as="geometry" />
        </mxCell>
        <mxCell id="zvLFGMxQSoV8-PF65h6c-77" value="" style="edgeStyle=orthogonalEdgeStyle;rounded=0;orthogonalLoop=1;jettySize=auto;html=1;entryX=0.75;entryY=0;entryDx=0;entryDy=0;endArrow=none;endFill=0;" parent="1" source="zvLFGMxQSoV8-PF65h6c-75" target="zvLFGMxQSoV8-PF65h6c-10" edge="1">
          <mxGeometry relative="1" as="geometry">
            <mxPoint x="-540" y="685" as="targetPoint" />
            <Array as="points">
              <mxPoint x="-540" y="650" />
              <mxPoint x="-780" y="650" />
            </Array>
          </mxGeometry>
        </mxCell>
        <mxCell id="zvLFGMxQSoV8-PF65h6c-79" value="" style="edgeStyle=orthogonalEdgeStyle;rounded=0;orthogonalLoop=1;jettySize=auto;html=1;entryX=1;entryY=0.75;entryDx=0;entryDy=0;endArrow=none;endFill=0;" parent="1" source="zvLFGMxQSoV8-PF65h6c-75" target="zvLFGMxQSoV8-PF65h6c-3" edge="1">
          <mxGeometry relative="1" as="geometry">
            <mxPoint x="-540" y="365" as="targetPoint" />
          </mxGeometry>
        </mxCell>
        <mxCell id="M3zGyAa31avvOrwBrVhZ-34" value="" style="edgeStyle=orthogonalEdgeStyle;rounded=0;orthogonalLoop=1;jettySize=auto;html=1;entryX=0;entryY=0.5;entryDx=0;entryDy=0;endArrow=oval;endFill=1;" parent="1" source="zvLFGMxQSoV8-PF65h6c-75" target="M3zGyAa31avvOrwBrVhZ-35" edge="1">
          <mxGeometry relative="1" as="geometry">
            <mxPoint x="-530" y="360" as="targetPoint" />
          </mxGeometry>
        </mxCell>
        <mxCell id="zvLFGMxQSoV8-PF65h6c-75" value="Predice" style="rhombus;whiteSpace=wrap;html=1;rounded=0;" parent="1" vertex="1">
          <mxGeometry x="-580" y="485" width="80" height="80" as="geometry" />
        </mxCell>
        <mxCell id="zvLFGMxQSoV8-PF65h6c-85" value="Pantallas:&lt;div&gt;- Registro&amp;nbsp;&lt;/div&gt;&lt;div&gt;- Inicio sesiÃ³n&amp;nbsp;&lt;/div&gt;&lt;div&gt;- Home&amp;nbsp;&lt;/div&gt;&lt;div&gt;&lt;span style=&quot;background-color: initial;&quot;&gt;Pantallas alumno:&lt;/span&gt;&lt;/div&gt;&lt;div&gt;- Predecir partido&amp;nbsp;&lt;/div&gt;&lt;div&gt;- Predecir campeÃ³n y subcampeÃ³n&amp;nbsp;&lt;/div&gt;&lt;div&gt;- Fixture&lt;/div&gt;&lt;div&gt;- Ver perfil (puntos, mÃ¡s los otros datos)&lt;/div&gt;&lt;div&gt;- Modificar prediccion partido&amp;nbsp;&lt;/div&gt;&lt;div&gt;Pantallas admin:&lt;/div&gt;&lt;div&gt;- Registrar fase (con sus partidos correspondientes)&lt;/div&gt;&lt;div&gt;- Registrar campeonato&amp;nbsp;&lt;/div&gt;&lt;div&gt;- Registrar Campeon y subcampeÃ³n&lt;/div&gt;&lt;div&gt;&lt;br&gt;&lt;/div&gt;" style="text;html=1;align=left;verticalAlign=middle;whiteSpace=wrap;rounded=0;" parent="1" vertex="1">
          <mxGeometry x="-2570" y="772.5" width="450" height="240" as="geometry" />
        </mxCell>
        <mxCell id="zvLFGMxQSoV8-PF65h6c-87" value="&lt;h1 style=&quot;margin-top: 0px;&quot;&gt;BitÃ¡cora&lt;/h1&gt;&lt;p&gt;-El administrador registra los partidos, cuanto salieron y de que etapa eran&amp;nbsp;&lt;/p&gt;" style="text;html=1;whiteSpace=wrap;overflow=hidden;rounded=0;" parent="1" vertex="1">
          <mxGeometry x="-2640" y="470" width="230" height="122.5" as="geometry" />
        </mxCell>
        <mxCell id="zvLFGMxQSoV8-PF65h6c-88" value="&lt;div&gt;Endpoints:&lt;/div&gt;&lt;div&gt;- Registro&amp;nbsp;&lt;/div&gt;&lt;div&gt;- Inicio de SesiÃ³n&lt;/div&gt;&lt;div&gt;- Registrar partido&lt;/div&gt;&lt;div&gt;- Predecir partido&amp;nbsp;&lt;/div&gt;&lt;div&gt;- Modificar predicciÃ³n&amp;nbsp;&lt;/div&gt;&lt;div&gt;- Predecir CampeÃ³n y subcampeÃ³n&amp;nbsp; (no se puede modificar, segÃºn nosotros)&lt;/div&gt;&lt;div&gt;- Agregar campeonato&amp;nbsp;&lt;/div&gt;&lt;div&gt;- Agregar etapa&amp;nbsp;&lt;/div&gt;&lt;div&gt;- Calcular estadisticas de los estudiantes&amp;nbsp;&lt;/div&gt;" style="text;html=1;align=left;verticalAlign=middle;whiteSpace=wrap;rounded=0;" parent="1" vertex="1">
          <mxGeometry x="-2620" y="567.5" width="450" height="240" as="geometry" />
        </mxCell>
        <mxCell id="M3zGyAa31avvOrwBrVhZ-1" value="(1,1)" style="text;html=1;align=center;verticalAlign=middle;whiteSpace=wrap;rounded=0;" parent="1" vertex="1">
          <mxGeometry x="-1350" y="225" width="60" height="30" as="geometry" />
        </mxCell>
        <mxCell id="M3zGyAa31avvOrwBrVhZ-2" value="(1,N)" style="text;html=1;align=center;verticalAlign=middle;whiteSpace=wrap;rounded=0;" parent="1" vertex="1">
          <mxGeometry x="-1290" y="190" width="60" height="30" as="geometry" />
        </mxCell>
        <mxCell id="M3zGyAa31avvOrwBrVhZ-4" value="(1,1)" style="text;html=1;align=center;verticalAlign=middle;whiteSpace=wrap;rounded=0;" parent="1" vertex="1">
          <mxGeometry x="-880" y="195" width="60" height="30" as="geometry" />
        </mxCell>
        <mxCell id="M3zGyAa31avvOrwBrVhZ-5" value="(1,N)" style="text;html=1;align=center;verticalAlign=middle;whiteSpace=wrap;rounded=0;" parent="1" vertex="1">
          <mxGeometry x="-770" width="60" height="30" as="geometry" />
        </mxCell>
        <mxCell id="M3zGyAa31avvOrwBrVhZ-6" value="(1,N)" style="text;html=1;align=center;verticalAlign=middle;whiteSpace=wrap;rounded=0;" parent="1" vertex="1">
          <mxGeometry x="-1040" y="70" width="60" height="30" as="geometry" />
        </mxCell>
        <mxCell id="M3zGyAa31avvOrwBrVhZ-7" value="(1,1)" style="text;html=1;align=center;verticalAlign=middle;whiteSpace=wrap;rounded=0;" parent="1" vertex="1">
          <mxGeometry x="-870" y="-70" width="60" height="30" as="geometry" />
        </mxCell>
        <mxCell id="M3zGyAa31avvOrwBrVhZ-10" value="&lt;u&gt;ci&lt;/u&gt;" style="text;html=1;align=center;verticalAlign=middle;whiteSpace=wrap;rounded=0;" parent="1" vertex="1">
          <mxGeometry x="-887" y="600" width="60" height="30" as="geometry" />
        </mxCell>
        <mxCell id="M3zGyAa31avvOrwBrVhZ-11" value="mail" style="text;html=1;align=center;verticalAlign=middle;whiteSpace=wrap;rounded=0;" parent="1" vertex="1">
          <mxGeometry x="-887" y="630" width="60" height="30" as="geometry" />
        </mxCell>
        <mxCell id="M3zGyAa31avvOrwBrVhZ-13" value="" style="edgeStyle=orthogonalEdgeStyle;rounded=0;orthogonalLoop=1;jettySize=auto;html=1;endArrow=oval;endFill=1;entryX=0;entryY=0.5;entryDx=0;entryDy=0;" parent="1" target="M3zGyAa31avvOrwBrVhZ-11" edge="1">
          <mxGeometry relative="1" as="geometry">
            <mxPoint x="-930" y="730" as="sourcePoint" />
            <mxPoint x="-877" y="625" as="targetPoint" />
            <Array as="points">
              <mxPoint x="-930" y="645" />
            </Array>
          </mxGeometry>
        </mxCell>
        <mxCell id="M3zGyAa31avvOrwBrVhZ-14" value="" style="edgeStyle=orthogonalEdgeStyle;rounded=0;orthogonalLoop=1;jettySize=auto;html=1;endArrow=oval;endFill=1;entryX=-0.014;entryY=0.492;entryDx=0;entryDy=0;exitX=0.165;exitY=-0.007;exitDx=0;exitDy=0;exitPerimeter=0;entryPerimeter=0;" parent="1" source="zvLFGMxQSoV8-PF65h6c-8" target="M3zGyAa31avvOrwBrVhZ-15" edge="1">
          <mxGeometry relative="1" as="geometry">
            <mxPoint x="-921" y="749" as="sourcePoint" />
            <mxPoint x="-887" y="675" as="targetPoint" />
            <Array as="points">
              <mxPoint x="-930" y="720" />
              <mxPoint x="-930" y="720" />
              <mxPoint x="-930" y="675" />
            </Array>
          </mxGeometry>
        </mxCell>
        <mxCell id="M3zGyAa31avvOrwBrVhZ-15" value="carrera" style="text;html=1;align=center;verticalAlign=middle;whiteSpace=wrap;rounded=0;" parent="1" vertex="1">
          <mxGeometry x="-887" y="660" width="60" height="30" as="geometry" />
        </mxCell>
        <mxCell id="M3zGyAa31avvOrwBrVhZ-16" value="&lt;u&gt;id&lt;/u&gt;" style="text;html=1;align=center;verticalAlign=middle;whiteSpace=wrap;rounded=0;" parent="1" vertex="1">
          <mxGeometry x="-1170" y="115" width="60" height="30" as="geometry" />
        </mxCell>
        <mxCell id="M3zGyAa31avvOrwBrVhZ-17" value="" style="endArrow=oval;html=1;rounded=0;entryX=0;entryY=0.5;entryDx=0;entryDy=0;exitX=0.75;exitY=0;exitDx=0;exitDy=0;endFill=1;" parent="1" source="zvLFGMxQSoV8-PF65h6c-2" target="M3zGyAa31avvOrwBrVhZ-16" edge="1">
          <mxGeometry width="50" height="50" relative="1" as="geometry">
            <mxPoint x="-1120" y="410" as="sourcePoint" />
            <mxPoint x="-1070" y="360" as="targetPoint" />
            <Array as="points">
              <mxPoint x="-1210" y="130" />
            </Array>
          </mxGeometry>
        </mxCell>
        <mxCell id="M3zGyAa31avvOrwBrVhZ-20" value="nombre" style="text;html=1;align=center;verticalAlign=middle;whiteSpace=wrap;rounded=0;" parent="1" vertex="1">
          <mxGeometry x="-1170" y="150" width="60" height="30" as="geometry" />
        </mxCell>
        <mxCell id="M3zGyAa31avvOrwBrVhZ-21" value="" style="endArrow=oval;html=1;rounded=0;entryX=0;entryY=0.5;entryDx=0;entryDy=0;exitX=0.75;exitY=0;exitDx=0;exitDy=0;endFill=1;" parent="1" source="zvLFGMxQSoV8-PF65h6c-2" target="M3zGyAa31avvOrwBrVhZ-20" edge="1">
          <mxGeometry width="50" height="50" relative="1" as="geometry">
            <mxPoint x="-1200" y="230" as="sourcePoint" />
            <mxPoint x="-1160" y="140" as="targetPoint" />
            <Array as="points">
              <mxPoint x="-1210" y="165" />
            </Array>
          </mxGeometry>
        </mxCell>
        <mxCell id="M3zGyAa31avvOrwBrVhZ-22" value="&lt;u&gt;id&lt;/u&gt;" style="text;html=1;align=center;verticalAlign=middle;whiteSpace=wrap;rounded=0;" parent="1" vertex="1">
          <mxGeometry x="-850" y="292.5" width="60" height="30" as="geometry" />
        </mxCell>
        <mxCell id="M3zGyAa31avvOrwBrVhZ-23" value="nombre" style="text;html=1;align=center;verticalAlign=middle;whiteSpace=wrap;rounded=0;" parent="1" vertex="1">
          <mxGeometry x="-850" y="315" width="60" height="30" as="geometry" />
        </mxCell>
        <mxCell id="M3zGyAa31avvOrwBrVhZ-26" value="" style="edgeStyle=orthogonalEdgeStyle;rounded=0;orthogonalLoop=1;jettySize=auto;html=1;entryX=0;entryY=0.5;entryDx=0;entryDy=0;endArrow=oval;endFill=1;exitX=0.105;exitY=0.989;exitDx=0;exitDy=0;exitPerimeter=0;" parent="1" source="zvLFGMxQSoV8-PF65h6c-3" target="M3zGyAa31avvOrwBrVhZ-23" edge="1">
          <mxGeometry relative="1" as="geometry">
            <mxPoint x="-880" y="280" as="sourcePoint" />
            <mxPoint x="-839" y="320" as="targetPoint" />
            <Array as="points">
              <mxPoint x="-877" y="330" />
            </Array>
          </mxGeometry>
        </mxCell>
        <mxCell id="M3zGyAa31avvOrwBrVhZ-27" value="&lt;u&gt;id&lt;/u&gt;" style="text;html=1;align=center;verticalAlign=middle;whiteSpace=wrap;rounded=0;" parent="1" vertex="1">
          <mxGeometry x="-707" y="-160" width="60" height="30" as="geometry" />
        </mxCell>
        <mxCell id="M3zGyAa31avvOrwBrVhZ-28" value="nombre" style="text;html=1;align=center;verticalAlign=middle;whiteSpace=wrap;rounded=0;" parent="1" vertex="1">
          <mxGeometry x="-707" y="-120" width="60" height="30" as="geometry" />
        </mxCell>
        <mxCell id="M3zGyAa31avvOrwBrVhZ-32" value="" style="edgeStyle=orthogonalEdgeStyle;rounded=0;orthogonalLoop=1;jettySize=auto;html=1;endArrow=oval;endFill=1;entryX=0;entryY=0.5;entryDx=0;entryDy=0;exitX=0.5;exitY=0;exitDx=0;exitDy=0;" parent="1" source="zvLFGMxQSoV8-PF65h6c-67" target="M3zGyAa31avvOrwBrVhZ-28" edge="1">
          <mxGeometry relative="1" as="geometry">
            <mxPoint x="-757" y="-60" as="sourcePoint" />
            <mxPoint x="-697" y="-135" as="targetPoint" />
          </mxGeometry>
        </mxCell>
        <mxCell id="M3zGyAa31avvOrwBrVhZ-35" value="CampeÃ³n" style="text;html=1;align=center;verticalAlign=middle;whiteSpace=wrap;rounded=0;" parent="1" vertex="1">
          <mxGeometry x="-510" y="360" width="70" height="30" as="geometry" />
        </mxCell>
        <mxCell id="M3zGyAa31avvOrwBrVhZ-36" value="SubcampeÃ³n" style="text;html=1;align=center;verticalAlign=middle;whiteSpace=wrap;rounded=0;" parent="1" vertex="1">
          <mxGeometry x="-510" y="405" width="90" height="30" as="geometry" />
        </mxCell>
        <mxCell id="M3zGyAa31avvOrwBrVhZ-37" value="" style="edgeStyle=orthogonalEdgeStyle;rounded=0;orthogonalLoop=1;jettySize=auto;html=1;entryX=0;entryY=0.5;entryDx=0;entryDy=0;exitX=0.5;exitY=0;exitDx=0;exitDy=0;endArrow=oval;endFill=1;" parent="1" source="zvLFGMxQSoV8-PF65h6c-75" target="M3zGyAa31avvOrwBrVhZ-36" edge="1">
          <mxGeometry relative="1" as="geometry">
            <mxPoint x="-530" y="495" as="sourcePoint" />
            <mxPoint x="-500" y="385" as="targetPoint" />
            <Array as="points">
              <mxPoint x="-540" y="420" />
            </Array>
          </mxGeometry>
        </mxCell>
        <mxCell id="W6pYR9iXb_RBRObpkIhJ-83" value="" style="rounded=0;whiteSpace=wrap;html=1;" vertex="1" parent="1">
          <mxGeometry x="-2720" y="-560" width="770" height="280" as="geometry" />
        </mxCell>
        <mxCell id="W6pYR9iXb_RBRObpkIhJ-84" value="" style="edgeStyle=orthogonalEdgeStyle;rounded=0;orthogonalLoop=1;jettySize=auto;html=1;endArrow=none;endFill=0;" edge="1" parent="1" source="W6pYR9iXb_RBRObpkIhJ-85" target="W6pYR9iXb_RBRObpkIhJ-100">
          <mxGeometry relative="1" as="geometry" />
        </mxCell>
        <mxCell id="W6pYR9iXb_RBRObpkIhJ-85" value="Equipo&amp;nbsp;" style="rounded=0;whiteSpace=wrap;html=1;strokeColor=default;" vertex="1" parent="1">
          <mxGeometry x="-2600" y="-440" width="120" height="60" as="geometry" />
        </mxCell>
        <mxCell id="W6pYR9iXb_RBRObpkIhJ-86" value="" style="edgeStyle=orthogonalEdgeStyle;rounded=0;orthogonalLoop=1;jettySize=auto;html=1;endArrow=none;endFill=0;" edge="1" parent="1" source="W6pYR9iXb_RBRObpkIhJ-88" target="W6pYR9iXb_RBRObpkIhJ-134">
          <mxGeometry relative="1" as="geometry">
            <mxPoint x="-2130" y="-510.00000000000045" as="targetPoint" />
          </mxGeometry>
        </mxCell>
        <mxCell id="W6pYR9iXb_RBRObpkIhJ-87" value="" style="edgeStyle=orthogonalEdgeStyle;rounded=0;orthogonalLoop=1;jettySize=auto;html=1;entryX=0.017;entryY=0.569;entryDx=0;entryDy=0;entryPerimeter=0;exitX=0.108;exitY=1.002;exitDx=0;exitDy=0;exitPerimeter=0;endArrow=oval;endFill=1;" edge="1" parent="1" source="W6pYR9iXb_RBRObpkIhJ-88" target="W6pYR9iXb_RBRObpkIhJ-156">
          <mxGeometry relative="1" as="geometry" />
        </mxCell>
        <mxCell id="W6pYR9iXb_RBRObpkIhJ-88" value="Campeonato&amp;nbsp;" style="rounded=0;whiteSpace=wrap;html=1;" vertex="1" parent="1">
          <mxGeometry x="-2190" y="-440" width="120" height="60" as="geometry" />
        </mxCell>
        <mxCell id="W6pYR9iXb_RBRObpkIhJ-89" value="" style="edgeStyle=orthogonalEdgeStyle;rounded=0;orthogonalLoop=1;jettySize=auto;html=1;startArrow=block;startFill=1;endArrow=none;endFill=0;" edge="1" parent="1" source="W6pYR9iXb_RBRObpkIhJ-93" target="W6pYR9iXb_RBRObpkIhJ-94">
          <mxGeometry relative="1" as="geometry" />
        </mxCell>
        <mxCell id="W6pYR9iXb_RBRObpkIhJ-90" value="" style="edgeStyle=orthogonalEdgeStyle;rounded=0;orthogonalLoop=1;jettySize=auto;html=1;endArrow=none;endFill=0;" edge="1" parent="1" source="W6pYR9iXb_RBRObpkIhJ-93" target="W6pYR9iXb_RBRObpkIhJ-95">
          <mxGeometry relative="1" as="geometry" />
        </mxCell>
        <mxCell id="W6pYR9iXb_RBRObpkIhJ-91" value="" style="edgeStyle=orthogonalEdgeStyle;rounded=0;orthogonalLoop=1;jettySize=auto;html=1;endArrow=none;endFill=0;exitX=0.167;exitY=0.998;exitDx=0;exitDy=0;exitPerimeter=0;entryX=0.5;entryY=1;entryDx=0;entryDy=0;" edge="1" parent="1" source="W6pYR9iXb_RBRObpkIhJ-95" target="W6pYR9iXb_RBRObpkIhJ-103">
          <mxGeometry relative="1" as="geometry">
            <Array as="points">
              <mxPoint x="-2150" y="415" />
              <mxPoint x="-2400" y="415" />
            </Array>
            <mxPoint x="-2130" y="287.5" as="sourcePoint" />
            <mxPoint x="-2420" y="72.5" as="targetPoint" />
          </mxGeometry>
        </mxCell>
        <mxCell id="W6pYR9iXb_RBRObpkIhJ-92" value="" style="edgeStyle=orthogonalEdgeStyle;rounded=0;orthogonalLoop=1;jettySize=auto;html=1;endArrow=oval;endFill=1;entryX=0;entryY=0.5;entryDx=0;entryDy=0;" edge="1" parent="1" source="W6pYR9iXb_RBRObpkIhJ-93" target="W6pYR9iXb_RBRObpkIhJ-147">
          <mxGeometry relative="1" as="geometry">
            <mxPoint x="-2190" y="-32.5" as="targetPoint" />
            <Array as="points">
              <mxPoint x="-2230" y="-45" />
            </Array>
          </mxGeometry>
        </mxCell>
        <mxCell id="W6pYR9iXb_RBRObpkIhJ-93" value="Usuario" style="rounded=0;whiteSpace=wrap;html=1;" vertex="1" parent="1">
          <mxGeometry x="-2250" y="77.5" width="120" height="60" as="geometry" />
        </mxCell>
        <mxCell id="W6pYR9iXb_RBRObpkIhJ-94" value="Administrador" style="rounded=0;whiteSpace=wrap;html=1;" vertex="1" parent="1">
          <mxGeometry x="-2320" y="222.5" width="120" height="60" as="geometry" />
        </mxCell>
        <mxCell id="W6pYR9iXb_RBRObpkIhJ-95" value="Alumno" style="rounded=0;whiteSpace=wrap;html=1;" vertex="1" parent="1">
          <mxGeometry x="-2170" y="222.5" width="120" height="60" as="geometry" />
        </mxCell>
        <mxCell id="W6pYR9iXb_RBRObpkIhJ-96" value="" style="edgeStyle=orthogonalEdgeStyle;rounded=0;orthogonalLoop=1;jettySize=auto;html=1;entryX=0;entryY=0.5;entryDx=0;entryDy=0;endArrow=classicThin;endFill=1;" edge="1" parent="1" source="W6pYR9iXb_RBRObpkIhJ-98" target="W6pYR9iXb_RBRObpkIhJ-85">
          <mxGeometry relative="1" as="geometry">
            <mxPoint x="-2650.0000000000005" y="-330" as="targetPoint" />
            <Array as="points">
              <mxPoint x="-2650" y="-410" />
            </Array>
          </mxGeometry>
        </mxCell>
        <mxCell id="W6pYR9iXb_RBRObpkIhJ-97" value="" style="edgeStyle=orthogonalEdgeStyle;rounded=0;orthogonalLoop=1;jettySize=auto;html=1;endArrow=none;endFill=0;startArrow=classic;startFill=1;" edge="1" parent="1" source="W6pYR9iXb_RBRObpkIhJ-98" target="W6pYR9iXb_RBRObpkIhJ-85">
          <mxGeometry relative="1" as="geometry">
            <mxPoint x="-2490.0000000000005" y="-490" as="targetPoint" />
          </mxGeometry>
        </mxCell>
        <mxCell id="W6pYR9iXb_RBRObpkIhJ-98" value="Juega" style="rhombus;whiteSpace=wrap;html=1;rounded=0;" vertex="1" parent="1">
          <mxGeometry x="-2690" y="-530" width="80" height="80" as="geometry" />
        </mxCell>
        <mxCell id="W6pYR9iXb_RBRObpkIhJ-99" value="" style="edgeStyle=orthogonalEdgeStyle;rounded=0;orthogonalLoop=1;jettySize=auto;html=1;endArrow=none;endFill=0;" edge="1" parent="1" source="W6pYR9iXb_RBRObpkIhJ-100" target="W6pYR9iXb_RBRObpkIhJ-88">
          <mxGeometry relative="1" as="geometry" />
        </mxCell>
        <mxCell id="W6pYR9iXb_RBRObpkIhJ-100" value="Tiene" style="rhombus;whiteSpace=wrap;html=1;rounded=0;" vertex="1" parent="1">
          <mxGeometry x="-2375" y="-450" width="80" height="80" as="geometry" />
        </mxCell>
        <mxCell id="W6pYR9iXb_RBRObpkIhJ-101" value="" style="edgeStyle=orthogonalEdgeStyle;rounded=0;orthogonalLoop=1;jettySize=auto;html=1;endArrow=none;endFill=0;exitX=0.494;exitY=-0.025;exitDx=0;exitDy=0;exitPerimeter=0;" edge="1" parent="1" source="W6pYR9iXb_RBRObpkIhJ-103">
          <mxGeometry relative="1" as="geometry">
            <mxPoint x="-2400" y="-230" as="targetPoint" />
            <Array as="points" />
            <mxPoint x="-2450.0000000000005" y="-22.499999999999545" as="sourcePoint" />
          </mxGeometry>
        </mxCell>
        <mxCell id="W6pYR9iXb_RBRObpkIhJ-102" value="" style="edgeStyle=orthogonalEdgeStyle;rounded=0;orthogonalLoop=1;jettySize=auto;html=1;endArrow=oval;endFill=1;" edge="1" parent="1" source="W6pYR9iXb_RBRObpkIhJ-103" target="W6pYR9iXb_RBRObpkIhJ-106">
          <mxGeometry relative="1" as="geometry" />
        </mxCell>
        <mxCell id="W6pYR9iXb_RBRObpkIhJ-103" value="Adivina" style="rhombus;whiteSpace=wrap;html=1;rounded=0;" vertex="1" parent="1">
          <mxGeometry x="-2440" y="-12.5" width="80" height="80" as="geometry" />
        </mxCell>
        <mxCell id="W6pYR9iXb_RBRObpkIhJ-104" value="" style="edgeStyle=orthogonalEdgeStyle;rounded=0;orthogonalLoop=1;jettySize=auto;html=1;endArrow=oval;endFill=1;" edge="1" parent="1" source="W6pYR9iXb_RBRObpkIhJ-106" target="W6pYR9iXb_RBRObpkIhJ-107">
          <mxGeometry relative="1" as="geometry" />
        </mxCell>
        <mxCell id="W6pYR9iXb_RBRObpkIhJ-105" value="" style="edgeStyle=orthogonalEdgeStyle;rounded=0;orthogonalLoop=1;jettySize=auto;html=1;endArrow=oval;endFill=1;" edge="1" parent="1" source="W6pYR9iXb_RBRObpkIhJ-106" target="W6pYR9iXb_RBRObpkIhJ-108">
          <mxGeometry relative="1" as="geometry" />
        </mxCell>
        <mxCell id="W6pYR9iXb_RBRObpkIhJ-106" value="Resultado" style="text;html=1;align=center;verticalAlign=middle;whiteSpace=wrap;rounded=0;" vertex="1" parent="1">
          <mxGeometry x="-2350" y="-150" width="70" height="30" as="geometry" />
        </mxCell>
        <mxCell id="W6pYR9iXb_RBRObpkIhJ-107" value="ResultadoX" style="text;html=1;align=center;verticalAlign=middle;whiteSpace=wrap;rounded=0;" vertex="1" parent="1">
          <mxGeometry x="-2240" y="-175" width="70" height="30" as="geometry" />
        </mxCell>
        <mxCell id="W6pYR9iXb_RBRObpkIhJ-108" value="ResultadoY" style="text;html=1;align=center;verticalAlign=middle;whiteSpace=wrap;rounded=0;" vertex="1" parent="1">
          <mxGeometry x="-2240" y="-125" width="70" height="30" as="geometry" />
        </mxCell>
        <mxCell id="W6pYR9iXb_RBRObpkIhJ-166" value="" style="edgeStyle=orthogonalEdgeStyle;rounded=0;orthogonalLoop=1;jettySize=auto;html=1;entryX=1;entryY=0.5;entryDx=0;entryDy=0;endArrow=none;endFill=0;" edge="1" parent="1" source="W6pYR9iXb_RBRObpkIhJ-128" target="W6pYR9iXb_RBRObpkIhJ-95">
          <mxGeometry relative="1" as="geometry">
            <mxPoint x="-1977" y="110" as="targetPoint" />
          </mxGeometry>
        </mxCell>
        <mxCell id="W6pYR9iXb_RBRObpkIhJ-170" value="" style="edgeStyle=orthogonalEdgeStyle;rounded=0;orthogonalLoop=1;jettySize=auto;html=1;endArrow=none;endFill=0;" edge="1" parent="1" source="W6pYR9iXb_RBRObpkIhJ-128">
          <mxGeometry relative="1" as="geometry">
            <mxPoint x="-1977" y="-280" as="targetPoint" />
          </mxGeometry>
        </mxCell>
        <mxCell id="W6pYR9iXb_RBRObpkIhJ-203" value="" style="edgeStyle=orthogonalEdgeStyle;rounded=0;orthogonalLoop=1;jettySize=auto;html=1;endArrow=oval;endFill=1;entryX=0;entryY=0.5;entryDx=0;entryDy=0;exitX=0.993;exitY=0.503;exitDx=0;exitDy=0;exitPerimeter=0;" edge="1" parent="1" source="W6pYR9iXb_RBRObpkIhJ-128">
          <mxGeometry relative="1" as="geometry">
            <mxPoint x="-1874" y="-50" as="sourcePoint" />
            <mxPoint x="-1867" y="-175" as="targetPoint" />
            <Array as="points">
              <mxPoint x="-1877" y="-50" />
              <mxPoint x="-1877" y="-175" />
            </Array>
          </mxGeometry>
        </mxCell>
        <mxCell id="W6pYR9iXb_RBRObpkIhJ-128" value="Predice_CampeÃ³n&lt;span style=&quot;color: rgba(0, 0, 0, 0); font-family: monospace; font-size: 0px; text-align: start; text-wrap: nowrap;&quot;&gt;%3CmxGraphModel%3E%3Croot%3E%3CmxCell%20id%3D%220%22%2F%3E%3CmxCell%20id%3D%221%22%20parent%3D%220%22%2F%3E%3CmxCell%20id%3D%222%22%20value%3D%22Predice%22%20style%3D%22rhombus%3BwhiteSpace%3Dwrap%3Bhtml%3D1%3Brounded%3D0%3B%22%20vertex%3D%221%22%20parent%3D%221%22%3E%3CmxGeometry%20x%3D%22-1270%22%20y%3D%22550%22%20width%3D%2280%22%20height%3D%2280%22%20as%3D%22geometry%22%2F%3E%3C%2FmxCell%3E%3C%2Froot%3E%3C%2FmxGraphModel%3E&lt;/span&gt;" style="rhombus;whiteSpace=wrap;html=1;rounded=0;" vertex="1" parent="1">
          <mxGeometry x="-2077" y="-90" width="200" height="80" as="geometry" />
        </mxCell>
        <mxCell id="W6pYR9iXb_RBRObpkIhJ-168" value="" style="edgeStyle=orthogonalEdgeStyle;rounded=0;orthogonalLoop=1;jettySize=auto;html=1;entryX=1;entryY=0.5;entryDx=0;entryDy=0;endArrow=none;endFill=0;" edge="1" parent="1" source="W6pYR9iXb_RBRObpkIhJ-129" target="W6pYR9iXb_RBRObpkIhJ-95">
          <mxGeometry relative="1" as="geometry">
            <mxPoint x="-1754" y="110" as="targetPoint" />
            <Array as="points">
              <mxPoint x="-1754" y="253" />
            </Array>
          </mxGeometry>
        </mxCell>
        <mxCell id="W6pYR9iXb_RBRObpkIhJ-184" value="" style="edgeStyle=orthogonalEdgeStyle;rounded=0;orthogonalLoop=1;jettySize=auto;html=1;endArrow=none;endFill=0;entryX=1.001;entryY=0.546;entryDx=0;entryDy=0;entryPerimeter=0;" edge="1" parent="1" source="W6pYR9iXb_RBRObpkIhJ-129" target="W6pYR9iXb_RBRObpkIhJ-83">
          <mxGeometry relative="1" as="geometry">
            <mxPoint x="-1840" y="-450" as="targetPoint" />
            <Array as="points">
              <mxPoint x="-1754" y="-409" />
              <mxPoint x="-1949" y="-409" />
            </Array>
          </mxGeometry>
        </mxCell>
        <mxCell id="W6pYR9iXb_RBRObpkIhJ-129" value="Predice_SubcampeÃ³n&lt;span style=&quot;color: rgba(0, 0, 0, 0); font-family: monospace; font-size: 0px; text-align: start; text-wrap: nowrap;&quot;&gt;%3CmxGraphModel%3E%3Croot%3E%3CmxCell%20id%3D%220%22%2F%3E%3CmxCell%20id%3D%221%22%20parent%3D%220%22%2F%3E%3CmxCell%20id%3D%222%22%20value%3D%22Predice%22%20style%3D%22rhombus%3BwhiteSpace%3Dwrap%3Bhtml%3D1%3Brounded%3D0%3B%22%20vertex%3D%221%22%20parent%3D%221%22%3E%3CmxGeometry%20x%3D%22-1270%22%20y%3D%22550%22%20width%3D%2280%22%20height%3D%2280%22%20as%3D%22geometry%22%2F%3E%3C%2FmxCell%3E%3C%2Froot%3E%3C%2FmxGraphModel%3E&lt;/span&gt;" style="rhombus;whiteSpace=wrap;html=1;rounded=0;" vertex="1" parent="1">
          <mxGeometry x="-1854" y="-90" width="200" height="80" as="geometry" />
        </mxCell>
        <mxCell id="W6pYR9iXb_RBRObpkIhJ-130" value="" style="edgeStyle=orthogonalEdgeStyle;rounded=0;orthogonalLoop=1;jettySize=auto;html=1;endArrow=none;endFill=0;" edge="1" parent="1" source="W6pYR9iXb_RBRObpkIhJ-132" target="W6pYR9iXb_RBRObpkIhJ-136">
          <mxGeometry relative="1" as="geometry" />
        </mxCell>
        <mxCell id="W6pYR9iXb_RBRObpkIhJ-131" value="" style="edgeStyle=orthogonalEdgeStyle;rounded=0;orthogonalLoop=1;jettySize=auto;html=1;endArrow=oval;endFill=1;entryX=0;entryY=0.5;entryDx=0;entryDy=0;" edge="1" parent="1" source="W6pYR9iXb_RBRObpkIhJ-132" target="W6pYR9iXb_RBRObpkIhJ-159">
          <mxGeometry relative="1" as="geometry">
            <mxPoint x="-2067" y="-840" as="targetPoint" />
          </mxGeometry>
        </mxCell>
        <mxCell id="W6pYR9iXb_RBRObpkIhJ-132" value="Etapas&amp;nbsp;" style="rounded=0;whiteSpace=wrap;html=1;" vertex="1" parent="1">
          <mxGeometry x="-2127" y="-730" width="120" height="60" as="geometry" />
        </mxCell>
        <mxCell id="W6pYR9iXb_RBRObpkIhJ-133" value="" style="edgeStyle=orthogonalEdgeStyle;rounded=0;orthogonalLoop=1;jettySize=auto;html=1;endArrow=none;endFill=0;" edge="1" parent="1" source="W6pYR9iXb_RBRObpkIhJ-134" target="W6pYR9iXb_RBRObpkIhJ-132">
          <mxGeometry relative="1" as="geometry" />
        </mxCell>
        <mxCell id="W6pYR9iXb_RBRObpkIhJ-134" value="Tiene" style="rhombus;whiteSpace=wrap;html=1;rounded=0;" vertex="1" parent="1">
          <mxGeometry x="-2108" y="-570" width="80" height="80" as="geometry" />
        </mxCell>
        <mxCell id="W6pYR9iXb_RBRObpkIhJ-135" value="" style="edgeStyle=orthogonalEdgeStyle;rounded=0;orthogonalLoop=1;jettySize=auto;html=1;endArrow=none;endFill=0;" edge="1" parent="1" source="W6pYR9iXb_RBRObpkIhJ-136" target="W6pYR9iXb_RBRObpkIhJ-83">
          <mxGeometry relative="1" as="geometry">
            <Array as="points">
              <mxPoint x="-2335" y="-700" />
            </Array>
          </mxGeometry>
        </mxCell>
        <mxCell id="W6pYR9iXb_RBRObpkIhJ-136" value="Tiene" style="rhombus;whiteSpace=wrap;html=1;rounded=0;" vertex="1" parent="1">
          <mxGeometry x="-2307" y="-740" width="80" height="80" as="geometry" />
        </mxCell>
        <mxCell id="W6pYR9iXb_RBRObpkIhJ-141" value="(1,N)" style="text;html=1;align=center;verticalAlign=middle;whiteSpace=wrap;rounded=0;" vertex="1" parent="1">
          <mxGeometry x="-2650" y="-435" width="60" height="30" as="geometry" />
        </mxCell>
        <mxCell id="W6pYR9iXb_RBRObpkIhJ-142" value="(1,1)" style="text;html=1;align=center;verticalAlign=middle;whiteSpace=wrap;rounded=0;" vertex="1" parent="1">
          <mxGeometry x="-2590" y="-470" width="60" height="30" as="geometry" />
        </mxCell>
        <mxCell id="W6pYR9iXb_RBRObpkIhJ-143" value="(1,1)" style="text;html=1;align=center;verticalAlign=middle;whiteSpace=wrap;rounded=0;" vertex="1" parent="1">
          <mxGeometry x="-2180" y="-465" width="60" height="30" as="geometry" />
        </mxCell>
        <mxCell id="W6pYR9iXb_RBRObpkIhJ-144" value="(1,N)" style="text;html=1;align=center;verticalAlign=middle;whiteSpace=wrap;rounded=0;" vertex="1" parent="1">
          <mxGeometry x="-2070" y="-660" width="60" height="30" as="geometry" />
        </mxCell>
        <mxCell id="W6pYR9iXb_RBRObpkIhJ-145" value="(1,N)" style="text;html=1;align=center;verticalAlign=middle;whiteSpace=wrap;rounded=0;" vertex="1" parent="1">
          <mxGeometry x="-2340" y="-590" width="60" height="30" as="geometry" />
        </mxCell>
        <mxCell id="W6pYR9iXb_RBRObpkIhJ-146" value="(1,1)" style="text;html=1;align=center;verticalAlign=middle;whiteSpace=wrap;rounded=0;" vertex="1" parent="1">
          <mxGeometry x="-2170" y="-730" width="60" height="30" as="geometry" />
        </mxCell>
        <mxCell id="W6pYR9iXb_RBRObpkIhJ-147" value="&lt;u&gt;ci&lt;/u&gt;" style="text;html=1;align=center;verticalAlign=middle;whiteSpace=wrap;rounded=0;" vertex="1" parent="1">
          <mxGeometry x="-2187" y="-60" width="60" height="30" as="geometry" />
        </mxCell>
        <mxCell id="W6pYR9iXb_RBRObpkIhJ-148" value="mail" style="text;html=1;align=center;verticalAlign=middle;whiteSpace=wrap;rounded=0;" vertex="1" parent="1">
          <mxGeometry x="-2187" y="-30" width="60" height="30" as="geometry" />
        </mxCell>
        <mxCell id="W6pYR9iXb_RBRObpkIhJ-149" value="" style="edgeStyle=orthogonalEdgeStyle;rounded=0;orthogonalLoop=1;jettySize=auto;html=1;endArrow=oval;endFill=1;entryX=0;entryY=0.5;entryDx=0;entryDy=0;" edge="1" parent="1" target="W6pYR9iXb_RBRObpkIhJ-148">
          <mxGeometry relative="1" as="geometry">
            <mxPoint x="-2230" y="70" as="sourcePoint" />
            <mxPoint x="-2177" y="-35" as="targetPoint" />
            <Array as="points">
              <mxPoint x="-2230" y="-15" />
            </Array>
          </mxGeometry>
        </mxCell>
        <mxCell id="W6pYR9iXb_RBRObpkIhJ-150" value="" style="edgeStyle=orthogonalEdgeStyle;rounded=0;orthogonalLoop=1;jettySize=auto;html=1;endArrow=oval;endFill=1;entryX=-0.014;entryY=0.492;entryDx=0;entryDy=0;exitX=0.165;exitY=-0.007;exitDx=0;exitDy=0;exitPerimeter=0;entryPerimeter=0;" edge="1" parent="1" source="W6pYR9iXb_RBRObpkIhJ-93" target="W6pYR9iXb_RBRObpkIhJ-151">
          <mxGeometry relative="1" as="geometry">
            <mxPoint x="-2221" y="89" as="sourcePoint" />
            <mxPoint x="-2187" y="15" as="targetPoint" />
            <Array as="points">
              <mxPoint x="-2230" y="60" />
              <mxPoint x="-2230" y="60" />
              <mxPoint x="-2230" y="15" />
            </Array>
          </mxGeometry>
        </mxCell>
        <mxCell id="W6pYR9iXb_RBRObpkIhJ-151" value="carrera" style="text;html=1;align=center;verticalAlign=middle;whiteSpace=wrap;rounded=0;" vertex="1" parent="1">
          <mxGeometry x="-2187" width="60" height="30" as="geometry" />
        </mxCell>
        <mxCell id="W6pYR9iXb_RBRObpkIhJ-152" value="&lt;u&gt;id&lt;/u&gt;" style="text;html=1;align=center;verticalAlign=middle;whiteSpace=wrap;rounded=0;" vertex="1" parent="1">
          <mxGeometry x="-2470" y="-545" width="60" height="30" as="geometry" />
        </mxCell>
        <mxCell id="W6pYR9iXb_RBRObpkIhJ-153" value="" style="endArrow=oval;html=1;rounded=0;entryX=0;entryY=0.5;entryDx=0;entryDy=0;exitX=0.75;exitY=0;exitDx=0;exitDy=0;endFill=1;" edge="1" parent="1" source="W6pYR9iXb_RBRObpkIhJ-85" target="W6pYR9iXb_RBRObpkIhJ-152">
          <mxGeometry width="50" height="50" relative="1" as="geometry">
            <mxPoint x="-2420" y="-250" as="sourcePoint" />
            <mxPoint x="-2370" y="-300" as="targetPoint" />
            <Array as="points">
              <mxPoint x="-2510" y="-530" />
            </Array>
          </mxGeometry>
        </mxCell>
        <mxCell id="W6pYR9iXb_RBRObpkIhJ-154" value="nombre" style="text;html=1;align=center;verticalAlign=middle;whiteSpace=wrap;rounded=0;" vertex="1" parent="1">
          <mxGeometry x="-2470" y="-510" width="60" height="30" as="geometry" />
        </mxCell>
        <mxCell id="W6pYR9iXb_RBRObpkIhJ-155" value="" style="endArrow=oval;html=1;rounded=0;entryX=0;entryY=0.5;entryDx=0;entryDy=0;exitX=0.75;exitY=0;exitDx=0;exitDy=0;endFill=1;" edge="1" parent="1" source="W6pYR9iXb_RBRObpkIhJ-85" target="W6pYR9iXb_RBRObpkIhJ-154">
          <mxGeometry width="50" height="50" relative="1" as="geometry">
            <mxPoint x="-2500" y="-430" as="sourcePoint" />
            <mxPoint x="-2460" y="-520" as="targetPoint" />
            <Array as="points">
              <mxPoint x="-2510" y="-495" />
            </Array>
          </mxGeometry>
        </mxCell>
        <mxCell id="W6pYR9iXb_RBRObpkIhJ-156" value="&lt;u&gt;id&lt;/u&gt;" style="text;html=1;align=center;verticalAlign=middle;whiteSpace=wrap;rounded=0;" vertex="1" parent="1">
          <mxGeometry x="-2150" y="-367.5" width="60" height="30" as="geometry" />
        </mxCell>
        <mxCell id="W6pYR9iXb_RBRObpkIhJ-157" value="nombre" style="text;html=1;align=center;verticalAlign=middle;whiteSpace=wrap;rounded=0;" vertex="1" parent="1">
          <mxGeometry x="-2150" y="-345" width="60" height="30" as="geometry" />
        </mxCell>
        <mxCell id="W6pYR9iXb_RBRObpkIhJ-158" value="" style="edgeStyle=orthogonalEdgeStyle;rounded=0;orthogonalLoop=1;jettySize=auto;html=1;entryX=0;entryY=0.5;entryDx=0;entryDy=0;endArrow=oval;endFill=1;exitX=0.105;exitY=0.989;exitDx=0;exitDy=0;exitPerimeter=0;" edge="1" parent="1" source="W6pYR9iXb_RBRObpkIhJ-88" target="W6pYR9iXb_RBRObpkIhJ-157">
          <mxGeometry relative="1" as="geometry">
            <mxPoint x="-2180" y="-380" as="sourcePoint" />
            <mxPoint x="-2139" y="-340" as="targetPoint" />
            <Array as="points">
              <mxPoint x="-2177" y="-330" />
            </Array>
          </mxGeometry>
        </mxCell>
        <mxCell id="W6pYR9iXb_RBRObpkIhJ-159" value="&lt;u&gt;id&lt;/u&gt;" style="text;html=1;align=center;verticalAlign=middle;whiteSpace=wrap;rounded=0;" vertex="1" parent="1">
          <mxGeometry x="-2007" y="-820" width="60" height="30" as="geometry" />
        </mxCell>
        <mxCell id="W6pYR9iXb_RBRObpkIhJ-160" value="nombre" style="text;html=1;align=center;verticalAlign=middle;whiteSpace=wrap;rounded=0;" vertex="1" parent="1">
          <mxGeometry x="-2007" y="-780" width="60" height="30" as="geometry" />
        </mxCell>
        <mxCell id="W6pYR9iXb_RBRObpkIhJ-161" value="" style="edgeStyle=orthogonalEdgeStyle;rounded=0;orthogonalLoop=1;jettySize=auto;html=1;endArrow=oval;endFill=1;entryX=0;entryY=0.5;entryDx=0;entryDy=0;exitX=0.5;exitY=0;exitDx=0;exitDy=0;" edge="1" parent="1" source="W6pYR9iXb_RBRObpkIhJ-132" target="W6pYR9iXb_RBRObpkIhJ-160">
          <mxGeometry relative="1" as="geometry">
            <mxPoint x="-2057" y="-720" as="sourcePoint" />
            <mxPoint x="-1997" y="-795" as="targetPoint" />
          </mxGeometry>
        </mxCell>
        <mxCell id="W6pYR9iXb_RBRObpkIhJ-173" value="&lt;font style=&quot;font-size: 100px;&quot;&gt;3 versiÃ³n&lt;/font&gt;" style="text;html=1;align=center;verticalAlign=middle;whiteSpace=wrap;rounded=0;" vertex="1" parent="1">
          <mxGeometry x="-2592" y="-920" width="650" height="30" as="geometry" />
        </mxCell>
        <mxCell id="W6pYR9iXb_RBRObpkIhJ-174" value="&lt;font style=&quot;font-size: 100px;&quot;&gt;2 versiÃ³n&lt;/font&gt;" style="text;html=1;align=center;verticalAlign=middle;whiteSpace=wrap;rounded=0;" vertex="1" parent="1">
          <mxGeometry x="-1340" y="-290" width="650" height="30" as="geometry" />
        </mxCell>
        <mxCell id="W6pYR9iXb_RBRObpkIhJ-175" value="&lt;font style=&quot;font-size: 100px;&quot;&gt;1 versiÃ³n&lt;/font&gt;" style="text;html=1;align=center;verticalAlign=middle;whiteSpace=wrap;rounded=0;" vertex="1" parent="1">
          <mxGeometry x="30" y="-80" width="650" height="30" as="geometry" />
        </mxCell>
        <mxCell id="W6pYR9iXb_RBRObpkIhJ-176" value="(1,1)" style="text;html=1;align=center;verticalAlign=middle;whiteSpace=wrap;rounded=0;" vertex="1" parent="1">
          <mxGeometry x="-2060" y="225" width="60" height="30" as="geometry" />
        </mxCell>
        <mxCell id="W6pYR9iXb_RBRObpkIhJ-177" value="(1,1)" style="text;html=1;align=center;verticalAlign=middle;whiteSpace=wrap;rounded=0;" vertex="1" parent="1">
          <mxGeometry x="-2060" y="252.5" width="60" height="30" as="geometry" />
        </mxCell>
        <mxCell id="W6pYR9iXb_RBRObpkIhJ-178" value="(1,1)" style="text;html=1;align=center;verticalAlign=middle;whiteSpace=wrap;rounded=0;" vertex="1" parent="1">
          <mxGeometry x="-2087" y="-435" width="60" height="30" as="geometry" />
        </mxCell>
        <mxCell id="W6pYR9iXb_RBRObpkIhJ-180" value="(1,1)" style="text;html=1;align=center;verticalAlign=middle;whiteSpace=wrap;rounded=0;" vertex="1" parent="1">
          <mxGeometry x="-2087" y="-410" width="60" height="30" as="geometry" />
        </mxCell>
        <mxCell id="W6pYR9iXb_RBRObpkIhJ-181" value="(0,N)" style="text;html=1;align=center;verticalAlign=middle;whiteSpace=wrap;rounded=0;" vertex="1" parent="1">
          <mxGeometry x="-2240" y="-435" width="60" height="30" as="geometry" />
        </mxCell>
        <mxCell id="W6pYR9iXb_RBRObpkIhJ-182" value="(1,N)" style="text;html=1;align=center;verticalAlign=middle;whiteSpace=wrap;rounded=0;" vertex="1" parent="1">
          <mxGeometry x="-2490" y="-435" width="60" height="30" as="geometry" />
        </mxCell>
        <mxCell id="W6pYR9iXb_RBRObpkIhJ-185" value="(1,1)" style="text;html=1;align=center;verticalAlign=middle;whiteSpace=wrap;rounded=0;" vertex="1" parent="1">
          <mxGeometry x="-2167" y="280" width="60" height="30" as="geometry" />
        </mxCell>
        <mxCell id="W6pYR9iXb_RBRObpkIhJ-186" value="(0,N)" style="text;html=1;align=center;verticalAlign=middle;whiteSpace=wrap;rounded=0;" vertex="1" parent="1">
          <mxGeometry x="-2450" y="-280" width="60" height="30" as="geometry" />
        </mxCell>
        <mxCell id="W6pYR9iXb_RBRObpkIhJ-192" value="" style="edgeStyle=orthogonalEdgeStyle;rounded=0;orthogonalLoop=1;jettySize=auto;html=1;endArrow=none;endFill=0;" edge="1" parent="1" source="W6pYR9iXb_RBRObpkIhJ-187" target="W6pYR9iXb_RBRObpkIhJ-191">
          <mxGeometry relative="1" as="geometry">
            <Array as="points">
              <mxPoint x="-1930" y="410" />
              <mxPoint x="-1930" y="410" />
            </Array>
          </mxGeometry>
        </mxCell>
        <mxCell id="W6pYR9iXb_RBRObpkIhJ-187" value="Carrera" style="rounded=0;whiteSpace=wrap;html=1;" vertex="1" parent="1">
          <mxGeometry x="-1877" y="380" width="120" height="60" as="geometry" />
        </mxCell>
        <mxCell id="W6pYR9iXb_RBRObpkIhJ-190" value="(0,N)" style="text;html=1;align=center;verticalAlign=middle;whiteSpace=wrap;rounded=0;" vertex="1" parent="1">
          <mxGeometry x="-2098" y="282.5" width="60" height="30" as="geometry" />
        </mxCell>
        <mxCell id="W6pYR9iXb_RBRObpkIhJ-194" value="" style="edgeStyle=orthogonalEdgeStyle;rounded=0;orthogonalLoop=1;jettySize=auto;html=1;entryX=0.693;entryY=1.005;entryDx=0;entryDy=0;entryPerimeter=0;endArrow=none;endFill=0;" edge="1" parent="1" source="W6pYR9iXb_RBRObpkIhJ-191" target="W6pYR9iXb_RBRObpkIhJ-95">
          <mxGeometry relative="1" as="geometry">
            <mxPoint x="-2180" y="410" as="targetPoint" />
            <Array as="points">
              <mxPoint x="-2087" y="410" />
            </Array>
          </mxGeometry>
        </mxCell>
        <mxCell id="W6pYR9iXb_RBRObpkIhJ-191" value="Pertenece" style="rhombus;whiteSpace=wrap;html=1;rounded=0;" vertex="1" parent="1">
          <mxGeometry x="-2060" y="370" width="80" height="80" as="geometry" />
        </mxCell>
        <mxCell id="W6pYR9iXb_RBRObpkIhJ-195" value="(1,N)" style="text;html=1;align=center;verticalAlign=middle;whiteSpace=wrap;rounded=0;" vertex="1" parent="1">
          <mxGeometry x="-1930" y="385" width="60" height="30" as="geometry" />
        </mxCell>
        <mxCell id="W6pYR9iXb_RBRObpkIhJ-199" value="(1,1)" style="text;html=1;align=center;verticalAlign=middle;whiteSpace=wrap;rounded=0;" vertex="1" parent="1">
          <mxGeometry x="-1990" y="-280" width="60" height="30" as="geometry" />
        </mxCell>
        <mxCell id="W6pYR9iXb_RBRObpkIhJ-200" value="(1,1)" style="text;html=1;align=center;verticalAlign=middle;whiteSpace=wrap;rounded=0;" vertex="1" parent="1">
          <mxGeometry x="-1960" y="-435" width="60" height="30" as="geometry" />
        </mxCell>
        <mxCell id="W6pYR9iXb_RBRObpkIhJ-204" value="CampeÃ³n" style="text;html=1;align=center;verticalAlign=middle;whiteSpace=wrap;rounded=0;" vertex="1" parent="1">
          <mxGeometry x="-1870" y="-190" width="70" height="30" as="geometry" />
        </mxCell>
        <mxCell id="W6pYR9iXb_RBRObpkIhJ-205" value="" style="edgeStyle=orthogonalEdgeStyle;rounded=0;orthogonalLoop=1;jettySize=auto;html=1;endArrow=oval;endFill=1;entryX=0;entryY=0.5;entryDx=0;entryDy=0;exitX=1.004;exitY=0.499;exitDx=0;exitDy=0;exitPerimeter=0;" edge="1" parent="1" source="W6pYR9iXb_RBRObpkIhJ-129">
          <mxGeometry relative="1" as="geometry">
            <mxPoint x="-1647" y="-50" as="sourcePoint" />
            <mxPoint x="-1640" y="-175" as="targetPoint" />
            <Array as="points">
              <mxPoint x="-1650" y="-50" />
              <mxPoint x="-1650" y="-175" />
            </Array>
          </mxGeometry>
        </mxCell>
        <mxCell id="W6pYR9iXb_RBRObpkIhJ-206" value="SubcampeÃ³n" style="text;html=1;align=center;verticalAlign=middle;whiteSpace=wrap;rounded=0;" vertex="1" parent="1">
          <mxGeometry x="-1643" y="-190" width="93" height="30" as="geometry" />
        </mxCell>
      </root>
    </mxGraphModel>
  </diagram>
</mxfile>
